<svg width="196" height="93" viewBox="0 0 196 93" fill="none" xmlns="http://www.w3.org/2000/svg">
<path d="M61.6365 56.6672C61.6365 70.7848 50.1722 82.2293 36.0302 82.2293C21.8882 82.2293 10.4238 70.7848 10.4238 56.6672C10.4238 42.5497 21.8882 31.1051 36.0302 31.1051C50.1722 31.1051 61.6365 42.5497 61.6365 56.6672Z" fill="#462B73"/>
<path d="M61.6365 59.9465C61.6365 74.064 50.1722 85.5085 36.0302 85.5085C21.8882 85.5085 10.4238 74.064 10.4238 59.9465C10.4238 45.8289 21.8882 34.3844 36.0302 34.3844C50.1722 34.3844 61.6365 45.8289 61.6365 59.9465Z" fill="#462B73"/>
<path d="M4.49553 66.9012C4.49553 69.7241 8.26598 69.7965 10.5863 69.7965C28.0608 69.7965 63.445 52.3522 63.445 41.4223C63.445 36.9345 57.4268 34.2564 50.321 32.302C48.9772 31.9331 47.6058 31.5901 46.2472 31.2503C38.8093 29.3901 31.7588 27.6267 31.7588 22.2407C31.7588 10.0804 55.1791 0.381014 65.7653 0.0190983C72.3636 -0.198053 76.7866 1.39438 76.7141 6.96788C76.5691 15.5815 63.9526 24.9189 56.2667 24.9189C54.8165 24.9189 52.6413 24.3399 52.6413 22.7474C52.6413 19.7797 55.4691 16.6672 56.9193 15.7986C55.8316 17.0292 55.3966 18.5492 55.3966 19.5626C55.3966 19.9969 55.8316 19.9969 56.2667 19.9969C59.2395 19.9969 73.3787 11.8899 74.3213 5.30307C74.6839 2.98681 72.7261 2.33536 69.9708 2.33536C69.1732 2.33536 68.2306 2.40774 67.288 2.48013C58.0069 3.49349 36.6894 15.4367 36.6894 22.8922C36.6894 26.9795 43.2874 28.8028 50.3942 30.7666L50.9736 30.9267C59.167 33.1706 67.6505 35.8488 67.6505 43.8833C67.6505 59.7352 31.5413 75.2253 11.7464 75.2253C6.96083 75.2253 0 73.85 0 68.1317C0 64.4715 3.82599 60.0423 9.23659 55.8056C9.16615 56.7889 9.23006 58.1971 9.39669 59.3725C6.31103 62.4889 4.49553 65.2195 4.49553 66.9012Z" fill="#AB8EDA"/>
<path d="M79.5255 37.9479C81.4833 35.4869 84.3836 32.1572 85.8338 30.9991C86.2688 30.6372 86.7039 30.5648 86.9214 30.5648C88.5891 30.5648 91.3444 33.3878 91.3444 35.2697C91.3444 35.386 91.2821 35.357 91.1462 35.2939C91.0284 35.2391 90.8552 35.1586 90.6193 35.125C89.5317 34.9802 86.9939 37.9479 84.6736 40.9156C83.731 42.0737 80.6132 46.5615 80.6132 46.5615C86.9214 39.6851 100.481 29.841 104.106 31.0715C105.049 31.4334 107.586 34.184 107.586 35.2697C107.586 41.7842 93.3747 59.1562 83.441 59.1562C80.6132 59.1562 77.2778 57.3466 77.2778 54.958C77.2778 54.596 77.6403 54.4513 77.6403 54.6684C77.6403 55.3923 78.8729 56.7675 80.3956 56.7675C87.719 56.7675 100.771 38.0203 101.641 33.9668C100.553 33.9668 88.8791 39.7575 76.2626 53.0036C69.2293 63.0649 59.0056 78.4825 57.1929 89.1952C56.8303 91.0048 56.8303 92.4525 58.498 92.6696C55.1626 93.9725 51.8997 91.2943 52.4798 86.879C54.0025 74.7186 68.5042 52.0626 79.5255 37.9479Z" fill="#AB8EDA"/>
<path fill-rule="evenodd" clip-rule="evenodd" d="M124.266 45.4034C122.888 47.213 120.93 50.5426 120.06 53.2208C120.004 53.4319 119.947 53.6348 119.893 53.8301C119.668 54.6387 119.48 55.316 119.48 55.8989C119.48 57.2018 120.858 58.7219 121.873 59.301C122.38 59.5905 122.743 59.7352 123.105 59.7352C126.077 59.7352 132.533 54.0955 138.337 48.3291C137.355 50.1523 136.749 51.7943 136.505 53.076C136.287 53.9446 136.287 54.6684 136.36 55.2475C136.722 57.5638 139.333 59.7352 141.653 59.7352C147.866 59.7352 156.468 53.4791 163.248 47.6785C162.702 48.5974 162.235 49.5077 161.86 50.3978C161.28 51.9902 160.845 53.4379 160.845 55.1751C160.845 57.1295 163.745 59.7352 165.993 59.7352C175.28 59.7352 189.005 46.9137 194.864 41.4401L194.883 41.4226C195.101 41.2188 195.308 41.0254 195.504 40.8432C195.721 40.6261 195.214 40.2642 194.996 40.4089C187.673 46.4891 174.404 56.5504 169.11 56.5504C167.515 56.5504 166.863 56.0437 166.935 55.1751C167.153 53.2931 168.53 50.9769 169.836 49.4568C177.957 49.2397 191.878 38.8165 191.878 34.3287C191.878 32.302 188.543 30.6372 187.455 30.6372C184.337 30.6372 177.884 32.8811 171.866 37.8755C169.538 39.8301 167.437 41.9725 165.705 44.1497C158.759 49.6179 149.841 56.0412 144.481 56.6228C143.828 56.6952 142.378 56.5504 142.378 55.3923C142.378 50.3254 156.59 33.9668 164.348 33.8221C164.928 34.3287 161.955 40.047 160.795 41.2051C160.65 41.4223 161.013 41.5671 161.158 41.4223L161.181 41.4051C163.573 39.5958 167.103 36.9258 167.103 34.184C167.103 33.0982 164.638 30.6372 162.97 30.6372C157.822 30.6372 150.499 34.4011 144.553 40.2642C143.326 41.4526 142.242 42.6642 141.299 43.8603C136.223 48.5477 129.187 54.7433 125.643 55.7542C125.643 55.1751 125.933 54.3065 126.368 53.2931C128.544 48.6606 135.069 40.7708 135.432 41.4947C135.722 40.6261 133.257 36.645 131.807 37.3688C130.391 38.16 127.208 41.1132 125.259 42.9214C124.712 43.429 124.262 43.8466 123.976 44.1005C120.205 47.2853 110.054 54.596 107.661 55.3923C107.444 55.4646 107.299 55.4646 107.154 55.3923C106.501 55.0303 111.939 45.9101 118.827 40.047C123.541 36.0659 128.834 33.0258 133.039 32.8087C135.214 32.6639 136.592 33.7497 136.592 35.9212C136.592 37.0069 136.157 37.8755 135.794 38.527C135.722 38.5994 135.867 38.6717 136.012 38.5993C136.737 37.6584 137.39 36.4279 137.39 35.1973C137.39 31.7953 133.764 30.6372 131.009 30.6372C117.667 30.6372 101.063 46.7787 101.063 54.6684C101.063 56.1161 102.948 58.8667 104.253 59.5181C104.398 59.5905 104.761 59.7352 104.906 59.7352C107.951 59.7352 122.09 47.5749 124.266 45.4034ZM189.558 32.8087C181.509 35.4145 173.171 44.1729 170.778 48.0092C177.086 47.2853 189.123 35.5593 189.558 32.8087Z" fill="#AB8EDA"/>
<path d="M83.9129 92.3674V73.7988H76.648V69.957C83.2584 69.957 88.8544 69.957 95.4975 69.957V73.7988H88.2326V92.3674H83.9129Z" fill="#AB8EDA"/>
<path d="M94.4411 76.5841H98.139L98.4335 78.4089C99.6771 76.456 101.346 76.1679 102.982 76.1679C104.651 76.1679 106.255 76.8082 107.138 77.6726L105.338 81.0662C104.52 80.3939 103.768 80.0417 102.459 80.0417C100.364 80.0417 98.4335 81.1302 98.4335 84.0435V92.3674H94.4411V76.5841Z" fill="#AB8EDA"/>
<path d="M121.295 78.7611L121.426 76.5841H125.255V92.3674H121.491L121.295 90.0623C120.379 91.9192 117.859 92.8156 116.059 92.8476C111.281 92.8796 107.747 89.9983 107.747 84.4597C107.747 79.0172 111.445 76.1679 116.157 76.1999C118.317 76.1999 120.379 77.1924 121.295 78.7611ZM116.517 79.6895C113.866 79.6895 111.739 81.4504 111.739 84.4597C111.739 87.4691 113.866 89.262 116.517 89.262C122.8 89.262 122.8 79.6895 116.517 79.6895Z" fill="#AB8EDA"/>
<path d="M136.457 79.8496C133.905 79.8496 131.876 81.6104 131.876 84.4597C131.876 87.213 133.905 89.1019 136.457 89.1019C138.977 89.1019 141.137 87.3091 141.137 84.4597C141.137 81.7065 138.977 79.8496 136.457 79.8496ZM141.399 69.989H145.391V92.3674H141.66L141.399 90.1904C140.155 92.0793 138.159 92.7196 136.195 92.7196C131.45 92.7196 127.883 89.6462 127.883 84.4597C127.883 79.0172 131.385 76.1999 136.097 76.1999C137.799 76.1999 140.45 77.0963 141.399 78.7291V69.989Z" fill="#AB8EDA"/>
<path d="M165.219 85.8684H152.62C152.882 87.8213 154.616 89.2299 157.431 89.2299C158.903 89.2299 160.834 88.6857 161.75 87.7573L164.303 90.2224C162.601 91.9512 159.819 92.7836 157.365 92.7836C151.802 92.7836 148.497 89.422 148.497 84.3637C148.497 79.5615 151.835 76.1039 157.071 76.1039C162.47 76.1039 165.841 79.3694 165.219 85.8684ZM152.685 82.6349H161.39C161.128 80.5859 159.492 79.5615 157.201 79.5615C155.042 79.5615 153.275 80.5859 152.685 82.6349Z" fill="#AB8EDA"/>
<path d="M168.295 76.5841H171.993L172.288 78.4089C173.531 76.456 175.2 76.1679 176.837 76.1679C178.506 76.1679 180.109 76.8082 180.993 77.6726L179.193 81.0662C178.375 80.3939 177.622 80.0417 176.313 80.0417C174.219 80.0417 172.288 81.1302 172.288 84.0435V92.3674H168.295V76.5841Z" fill="#AB8EDA"/>
<path d="M195.247 78.2169L193.022 80.778C191.877 79.7215 190.568 79.3694 189.03 79.3694C187.132 79.3694 186.084 79.9457 186.084 80.9381C186.084 81.9626 187.033 82.5389 189.095 82.6669C192.138 82.859 196 83.5313 196 87.7253C196 90.5105 193.677 92.9117 189.062 92.9117C186.51 92.9117 183.957 92.4955 181.601 90.0944L183.565 87.3091C184.71 88.5576 187.328 89.4861 189.128 89.5181C190.633 89.5501 192.04 88.7817 192.04 87.6292C192.04 86.5407 191.124 86.0925 188.833 85.9644C185.79 85.7403 182.157 84.6518 182.157 81.0662C182.157 77.4165 186.019 76.1359 188.964 76.1359C191.484 76.1359 193.382 76.6161 195.247 78.2169Z" fill="#AB8EDA"/>
</svg>
