<svg width="64" height="64" viewBox="0 0 64 64" fill="none" xmlns="http://www.w3.org/2000/svg">
<path d="M52 8H60V0H42C40.9392 0 39.9218 0.421428 39.1716 1.17157C38.4215 1.92172 38 2.93913 38 4V22H46V13.57C49.0734 15.5625 51.5987 18.2931 53.3455 21.5124C55.0922 24.7317 56.0049 28.3373 56 32H64C64.0078 27.3413 62.9269 22.7452 60.8435 18.5783C58.76 14.4114 55.7317 10.789 52 8Z" fill="#352F44"/>
<path d="M12 56H4.00004V64H22C23.0609 64 24.0783 63.5786 24.8285 62.8284C25.5786 62.0783 26 61.0609 26 60V42H18V50.43C14.9267 48.4375 12.4014 45.7069 10.6546 42.4876C8.90785 39.2683 7.99522 35.6627 8.00004 32H4.18485e-05C-0.00775193 36.6587 1.07318 41.2548 3.15663 45.4217C5.24007 49.5886 8.26839 53.211 12 56Z" fill="#352F44"/>
<path d="M62 50C62 47.2311 61.1789 44.5243 59.6406 42.222C58.1023 39.9197 55.9158 38.1253 53.3576 37.0657C50.7994 36.0061 47.9845 35.7288 45.2688 36.269C42.553 36.8092 40.0585 38.1426 38.1005 40.1005C36.1426 42.0584 34.8092 44.553 34.269 47.2687C33.7288 49.9845 34.0061 52.7994 35.0657 55.3576C36.1254 57.9157 37.9198 60.1022 40.2221 61.6406C42.5243 63.1789 45.2311 64 48 64C51.7131 64 55.274 62.525 57.8995 59.8995C60.525 57.274 62 53.713 62 50ZM42 50C42 48.8133 42.3519 47.6533 43.0112 46.6666C43.6705 45.6799 44.6076 44.9109 45.7039 44.4567C46.8003 44.0026 48.0067 43.8838 49.1706 44.1153C50.3345 44.3468 51.4036 44.9183 52.2427 45.7574C53.0818 46.5965 53.6532 47.6656 53.8848 48.8295C54.1163 49.9934 53.9974 51.1997 53.5433 52.2961C53.0892 53.3925 52.3202 54.3295 51.3335 54.9888C50.3468 55.6481 49.1867 56 48 56C46.4087 56 44.8826 55.3679 43.7574 54.2426C42.6322 53.1174 42 51.5913 42 50Z" fill="#352F44"/>
<path d="M24 0H10C8.40875 0 6.88262 0.63214 5.7574 1.75736C4.63219 2.88258 4.00005 4.4087 4.00005 6V20C4.00005 21.5913 4.63219 23.1174 5.7574 24.2426C6.88262 25.3679 8.40875 26 10 26H24C25.5913 26 27.1175 25.3679 28.2427 24.2426C29.3679 23.1174 30 21.5913 30 20V6C30 4.4087 29.3679 2.88258 28.2427 1.75736C27.1175 0.63214 25.5913 0 24 0ZM22 18H12V8H22V18Z" fill="#352F44"/>
</svg>
