<svg width="15" height="17" viewBox="0 0 15 17" fill="none" xmlns="http://www.w3.org/2000/svg">
<path d="M12.4779 14.1134L14.5133 12.917L10.8407 7.22288L9.20354 8.19775L12.4558 14.1134H12.4779ZM4.95575 15.5979L7.01327 16.75L10.177 10.7679L8.5177 9.8373L4.97788 15.5979H4.95575ZM0 9.8373V12.1858L6.79204 11.8978L6.74779 10.0145L0 9.81514V9.8373ZM15 6.9127L14.9779 4.56415L8.18584 4.85218V6.75761L14.9779 6.9127H15ZM2.47788 2.59226L0.464602 3.78869L4.09292 9.50496L5.70796 8.55225L2.47788 2.59226V2.59226ZM9.97788 1.17427L7.94248 0L4.80088 5.98214L6.41593 6.93485L9.95575 1.17427H9.97788Z" fill="#DAD78E"/>
</svg>
