<svg width="20" height="19" viewBox="0 0 20 19" fill="none" xmlns="http://www.w3.org/2000/svg">
<path d="M17.2064 15.2012C17.947 15.2001 18.6569 14.9054 19.1805 14.3817C19.7042 13.8581 19.9989 13.1481 20 12.4076V6.27039C20.0008 5.90344 19.9288 5.53998 19.7883 5.201C19.6478 4.86202 19.4415 4.55426 19.1813 4.2955L15.5336 0.626939L14.1191 2.04145L15.9356 3.86635L15.6919 5.03296C15.6175 5.38232 15.6466 5.74581 15.7758 6.07885C15.9049 6.41188 16.1284 6.7 16.4189 6.90786L18.0001 8.03905V12.4138C18.0001 12.6241 17.9166 12.8257 17.7679 12.9743C17.6193 13.123 17.4177 13.2065 17.2074 13.2065C16.9972 13.2065 16.7956 13.123 16.6469 12.9743C16.4983 12.8257 16.4148 12.6241 16.4148 12.4138V10.7681C16.4137 10.0275 16.119 9.31758 15.5953 8.79392C15.0717 8.27025 14.3617 7.97557 13.6212 7.97447H12.5795V4.20384C12.5787 3.26805 12.2565 2.36094 11.6668 1.63434C11.0771 0.907736 10.2557 0.405741 9.34014 0.212377C7.95032 -0.0707925 6.51767 -0.0707925 5.12786 0.212377C4.2138 0.407409 3.39433 0.910121 2.80627 1.63656C2.21822 2.36301 1.89718 3.26921 1.89678 4.20384V15.7511H1.22598C0.900828 15.7511 0.588996 15.8803 0.35908 16.1102C0.129165 16.3401 0 16.652 0 16.9771C0 17.3023 0.129165 17.6141 0.35908 17.844C0.588996 18.0739 0.900828 18.2031 1.22598 18.2031H13.242C13.5672 18.2031 13.879 18.0739 14.1089 17.844C14.3388 17.6141 14.468 17.3023 14.468 16.9771C14.468 16.652 14.3388 16.3401 14.1089 16.1102C13.879 15.8803 13.5672 15.7511 13.242 15.7511H12.5733V9.97437H13.6149C13.8247 9.97492 14.0257 10.0585 14.1741 10.2068C14.3224 10.3552 14.406 10.5562 14.4065 10.766V12.4055C14.4068 12.7729 14.4794 13.1367 14.6203 13.476C14.7612 13.8153 14.9675 14.1236 15.2275 14.3832C15.4874 14.6428 15.796 14.8487 16.1356 14.989C16.4751 15.1294 16.839 15.2015 17.2064 15.2012ZM8.63809 9.1015H5.83407C5.60036 9.1015 5.37622 9.00866 5.21096 8.8434C5.04571 8.67814 4.95287 8.454 4.95287 8.22029C4.95287 7.98658 5.04571 7.76244 5.21096 7.59719C5.37622 7.43193 5.60036 7.33909 5.83407 7.33909H8.63809C8.8718 7.33909 9.09594 7.43193 9.26119 7.59719C9.42645 7.76244 9.51929 7.98658 9.51929 8.22029C9.51929 8.454 9.42645 8.67814 9.26119 8.8434C9.09594 9.00866 8.8718 9.1015 8.63809 9.1015ZM8.63809 5.69959H5.83407C5.60036 5.69959 5.37622 5.60675 5.21096 5.44149C5.04571 5.27623 4.95287 5.0521 4.95287 4.81839C4.95287 4.58468 5.04571 4.36054 5.21096 4.19528C5.37622 4.03002 5.60036 3.93718 5.83407 3.93718H8.63809C8.8718 3.93718 9.09594 4.03002 9.26119 4.19528C9.42645 4.36054 9.51929 4.58468 9.51929 4.81839C9.51929 5.0521 9.42645 5.27623 9.26119 5.44149C9.09594 5.60675 8.8718 5.69959 8.63809 5.69959Z" fill="#AB8EDA"/>
</svg>
