<svg width="195" height="195" viewBox="0 0 195 195" fill="none" xmlns="http://www.w3.org/2000/svg">
<path d="M77.901 75.8622L79.0946 74.6685L78.9922 74.5496L86.583 44.4711C88.8699 41.6295 89.9192 37.3289 90.399 34.0817C90.7949 31.4043 89.7765 30.2079 89.4153 29.8749C89.0837 29.5137 87.8835 28.4867 85.1986 28.8806C81.9644 29.3549 77.6786 30.3997 74.8242 32.6993L44.822 40.2757L44.7887 40.2458L44.7375 40.297L44.7244 40.3004L44.7292 40.3052L43.5363 41.4982L52.6565 50.6184L50.3091 52.9658L50.0389 52.6956L48.5958 54.1388L65.3549 70.8979L66.798 69.4547L66.5337 69.1904L68.8811 66.843L77.901 75.8622ZM83.0735 31.2249L88.0526 36.204C87.4387 38.9995 86.4005 42.0691 84.5473 43.9222L71.0667 57.4028C70.8398 57.022 70.5628 56.6632 70.2353 56.3357C70.2301 56.3305 70.225 56.3261 70.2195 56.3206L80.3628 46.1772C82.3659 44.1742 82.3659 40.9153 80.3628 38.9122C78.3258 36.8752 75.1339 36.8755 73.0975 38.9119L62.9494 49.0601C62.6005 48.7456 62.22 48.4841 61.8193 48.2751L75.3374 34.757C75.3367 34.755 75.3418 34.7477 75.3573 34.7323C75.3614 34.7302 75.3638 34.7292 75.3669 34.7275C77.2332 32.8667 80.2941 31.8356 83.0735 31.2249ZM48.4889 41.338L73.7804 34.9509L60.8491 47.8822C59.1983 47.3925 57.3613 47.696 55.9405 48.7896L48.4889 41.338ZM58.4164 60.3906L52.0258 54L56.0858 49.9399C57.8476 48.1782 60.715 48.1778 62.4768 49.9396C64.2385 51.7013 64.2382 54.5688 62.4764 56.3305L58.4164 60.3906ZM63.6061 49.7664L73.7794 39.5931C75.4339 37.9386 78.0268 37.9386 79.6816 39.5934C81.309 41.2208 81.309 43.8686 79.682 45.4957L69.4754 55.7023C67.9724 54.6633 66.0635 54.4598 64.4008 55.0929C65.0696 53.3366 64.8046 51.3037 63.6061 49.7664ZM65.4937 67.4679L59.1034 61.0776L63.1635 57.0176C64.9252 55.2558 67.7927 55.2555 69.5544 57.0172C71.3165 58.7793 71.3158 61.6464 69.5541 63.4082L65.4937 67.4679ZM70.7041 63.5532C71.8688 62.0406 72.1359 60.0565 71.5056 58.327L84.3349 45.4977L77.9498 70.7989L70.7041 63.5532ZM75.3573 34.7323C75.3614 34.7302 75.3638 34.7292 75.3669 34.7275C75.3645 34.7299 75.3621 34.7323 75.3597 34.7347L75.3374 34.757C75.3367 34.755 75.3418 34.7477 75.3573 34.7323ZM75.3597 34.7347C75.3621 34.7323 75.3645 34.7299 75.3669 34.7275C75.4195 34.7037 75.3401 34.7639 75.3374 34.757L75.3597 34.7347ZM84.5452 43.9202C84.4758 43.9896 84.5889 43.838 84.5452 43.9202ZM78.5502 36.5401L79.859 32.9135C82.5865 33.8978 85.3859 36.6972 86.3699 39.4243L82.7429 40.7328C82.1504 39.092 80.1913 37.133 78.5502 36.5401Z" fill="#AB8EDA"/>
<path d="M162.653 145.532C157.342 155.466 149.664 163.938 140.298 170.197C130.931 176.455 120.166 180.307 108.955 181.411C97.7445 182.515 86.4346 180.838 76.0272 176.527C65.6198 172.216 56.4361 165.405 49.2898 156.697C42.1434 147.989 37.2549 137.653 35.0572 126.605C32.8595 115.556 33.4205 104.136 36.6906 93.3564C39.9606 82.5766 45.8387 72.7696 53.8042 64.8041" stroke="#AB8EDA" stroke-width="3"/>
</svg>
