<svg width="30" height="31" viewBox="0 0 30 31" fill="none" xmlns="http://www.w3.org/2000/svg">
<path d="M4.10597 30.203L5.14787 30.203L5.15507 30.1064L21.5954 20.2919C23.8337 20.0498 26.1686 18.6308 27.7952 17.423C29.1365 16.4273 29.2142 15.4607 29.2019 15.1577C29.2148 14.8553 29.1392 13.8833 27.7955 12.8834C26.177 11.6789 23.8505 10.2644 21.6011 10.0223L5.20037 0.234802L5.19887 0.207202L5.15417 0.207202L5.14697 0.203002L5.14697 0.207202L4.10567 0.207202L4.10567 8.168L2.05667 8.168L2.05667 7.9322L0.796971 7.9322L0.796971 22.5608L2.05667 22.5608L2.05667 22.3301L4.10567 22.3301L4.10597 30.203ZM25.8449 12.9791L25.8449 17.3252C24.3569 18.2774 22.5641 19.1639 20.9465 19.1639L9.17957 19.1639C9.24677 18.8987 9.28247 18.6212 9.28247 18.3353C9.28247 18.3308 9.28217 18.3266 9.28217 18.3218L18.1361 18.3218C19.8845 18.3218 21.3068 16.8995 21.3068 15.1511C21.3068 13.373 19.9136 11.9801 18.1361 11.9801L9.27797 11.9801C9.26297 11.6906 9.21107 11.4104 9.12737 11.1443L20.927 11.1443C20.9276 11.1431 20.933 11.1422 20.9465 11.1422C20.9492 11.1431 20.9507 11.1437 20.9528 11.1443C22.5794 11.1467 24.3653 12.0326 25.8449 12.9791ZM6.33707 2.2988L20.1629 10.5494L8.87537 10.5494C8.36867 9.6152 7.43447 8.9459 6.33707 8.8031L6.33707 2.2988ZM2.35457 14.9468L2.35457 9.3686L5.89847 9.3686C7.43627 9.3686 8.68787 10.6199 8.68787 12.1577C8.68787 13.6955 7.43627 14.9468 5.89847 14.9468L2.35457 14.9468ZM9.25637 12.575L18.1364 12.575C19.5806 12.575 20.7122 13.7066 20.7122 15.1511C20.7122 16.5716 19.5566 17.7272 18.1364 17.7272L9.22727 17.7272C9.02477 16.6178 8.28047 15.6959 7.27847 15.2465C8.33687 14.7719 9.10847 13.769 9.25637 12.575ZM2.35457 21.1244L2.35457 15.5465L5.89847 15.5465C7.43627 15.5465 8.68787 16.7978 8.68787 18.3356C8.68787 19.8737 7.43627 21.1247 5.89847 21.1247L2.35457 21.1244ZM6.33707 21.6899C7.50557 21.5381 8.48807 20.7887 8.96777 19.7588L20.1662 19.7588L6.33707 28.0145L6.33707 21.6899ZM20.9465 11.1422C20.9492 11.1431 20.9507 11.1437 20.9528 11.1443C20.9507 11.1443 20.9486 11.1443 20.9465 11.1443L20.927 11.1443C20.9276 11.1431 20.933 11.1422 20.9465 11.1422ZM20.9465 11.1443C20.9486 11.1443 20.9507 11.1443 20.9528 11.1443C20.9861 11.1569 20.9252 11.1485 20.927 11.1443L20.9465 11.1443ZM20.9465 19.1621C20.8859 19.1621 21.0014 19.1453 20.9465 19.1621ZM21.551 13.3247L23.705 12.3131C24.4658 13.9331 24.4658 16.3766 23.705 17.9963L21.551 16.9844C22.0085 16.0097 22.0085 14.2997 21.551 13.3247Z" fill="#AB8EDA"/>
</svg>
