<svg width="20" height="20" viewBox="0 0 20 20" fill="none" xmlns="http://www.w3.org/2000/svg">
<path d="M15.1164 5.66948C15.2573 5.64834 15.3931 5.58428 15.5016 5.47579C15.7712 5.20625 15.7712 4.7692 15.5016 4.49967C15.2321 4.23013 14.7951 4.23013 14.5255 4.49967C14.417 4.60821 14.353 4.74397 14.3318 4.8849C14.4887 4.98231 14.6358 5.09793 14.7696 5.23179C14.9034 5.36557 15.019 5.51263 15.1164 5.66948Z" fill="#AB8EDA"/>
<path d="M6.0071 14.565C6.14213 14.4055 6.13207 14.1648 5.98432 14.017C5.83661 13.8692 5.59585 13.8592 5.43628 13.9942L3.0771 15.9904L4.01086 16.9242L6.0071 14.565Z" fill="#AB8EDA"/>
<path d="M10.621 5.96388C10.6212 5.96409 10.6213 5.96418 10.6213 5.96418L11.3424 5.24297C11.346 5.23931 11.3494 5.23547 11.353 5.2318C11.3567 5.22818 11.3605 5.22481 11.3641 5.22123L12.5734 4.01177L12.0852 3.52356L10.1329 5.47584L10.621 5.96388Z" fill="#AB8EDA"/>
<path d="M13.5491 2.05915L12.573 3.03525L13.0611 3.52337L14.0372 2.54728L13.5491 2.05915Z" fill="#AB8EDA"/>
<path d="M3.90318 12.1936C2.97827 11.9283 1.96751 12.177 1.26852 12.876L1.10364 13.0409L2.0798 14.017L3.90318 12.1936Z" fill="#AB8EDA"/>
<path d="M14.7696 8.64823L14.7695 8.64832L14.0374 9.38035L14.5255 9.86843C14.5257 9.86865 14.5258 9.86873 14.5258 9.86873L16.4779 7.91628L15.9897 7.42807L14.7697 8.6481L14.7696 8.64823Z" fill="#AB8EDA"/>
<path d="M17.4536 5.96354L16.4775 6.93967L16.9656 7.42776L17.9417 6.45163L17.4536 5.96354Z" fill="#AB8EDA"/>
<path d="M10.7545 7.66016C10.1537 7.78772 9.58354 8.00527 9.05849 8.30591L11.6954 10.9428C11.996 10.4178 12.2135 9.84763 12.3411 9.24683C11.9722 9.13212 11.634 8.92924 11.353 8.64822C11.0721 8.36721 10.8692 8.02909 10.7545 7.66016Z" fill="#AB8EDA"/>
<path d="M11.8411 5.71984C11.5152 6.04576 11.3357 6.4791 11.3357 6.94C11.3357 7.4009 11.5152 7.83424 11.8411 8.16016C12.167 8.48608 12.6004 8.66558 13.0613 8.66558C13.5222 8.66558 13.9555 8.48608 14.2814 8.16016C14.6074 7.83424 14.7869 7.4009 14.7869 6.94C14.7869 6.4791 14.6074 6.04576 14.2814 5.71984C13.9555 5.39392 13.5222 5.21442 13.0613 5.21442C12.6004 5.21442 12.167 5.39392 11.8411 5.71984ZM13.5494 6.45192C13.8189 6.72145 13.8189 7.1585 13.5494 7.42804C13.2798 7.69757 12.8428 7.69757 12.5732 7.42804C12.3037 7.1585 12.3037 6.72145 12.5732 6.45192C12.8428 6.18238 13.2798 6.18238 13.5494 6.45192Z" fill="#AB8EDA"/>
<path d="M4.50062 17.414L4.76416 17.6775C4.89871 17.8121 5.11769 17.8121 5.25224 17.6775L5.49624 17.4335L4.94802 16.8853L4.50062 17.414Z" fill="#AB8EDA"/>
<path d="M5.98432 17.9215L6.96048 18.8977L7.12528 18.7328C7.82435 18.0338 8.07301 17.023 7.80775 16.0981L5.98432 17.9215Z" fill="#AB8EDA"/>
<path d="M3.05588 14.017L3.64478 14.6059L4.99043 13.4673C5.42182 13.1023 6.07271 13.1294 6.4724 13.5289C6.87205 13.9286 6.8991 14.5795 6.53409 15.0109L5.39547 16.3565L5.98436 16.9454L10.377 12.5528L7.44856 9.62439L3.05588 14.017Z" fill="#AB8EDA"/>
<path d="M8.46907 8.69266C8.28482 8.83006 8.10787 8.9788 7.93889 9.13859L10.8627 12.0624C11.0225 11.8934 11.1712 11.7164 11.3086 11.5322L8.46907 8.69266Z" fill="#AB8EDA"/>
<path d="M3.54392 17.9216C3.36575 18.0997 3.02594 18.3094 2.69834 18.4432C2.45861 18.5412 2.24882 18.5901 2.0701 18.5901C1.87191 18.5901 1.71195 18.5299 1.59163 18.4096C1.36282 18.1808 1.35152 17.8085 1.55807 17.3029C1.69193 16.9753 1.90155 16.6355 2.07976 16.4573C2.16418 16.3729 2.26069 16.3049 2.3653 16.2548L1.96276 15.8523C1.23047 16.0044 0.588079 16.4571 0.196026 17.0883H0.615515C0.748601 17.0883 0.869866 17.1649 0.927112 17.285C0.984315 17.4052 0.967405 17.5476 0.883498 17.6509C0.87569 17.6607 0.118375 18.6185 0 20.0013C1.3828 19.8829 2.34067 19.1256 2.35098 19.1173C2.45443 19.0341 2.59692 19.0174 2.71667 19.0748C2.83638 19.1322 2.91296 19.2529 2.91296 19.3857V19.8053C3.54422 19.4132 3.99688 18.7709 4.14899 18.0385L3.7465 17.636C3.69637 17.7406 3.62838 17.8371 3.54392 17.9216Z" fill="#AB8EDA"/>
<path d="M2.3238 14.7491C2.18925 14.8836 2.18925 15.1026 2.3238 15.2372L2.5873 15.5007L3.11606 15.0533L2.56784 14.505L2.3238 14.7491Z" fill="#AB8EDA"/>
<path d="M3.05579 16.9453C2.98854 16.8781 2.90019 16.8445 2.81184 16.8445C2.72344 16.8445 2.63509 16.8781 2.56784 16.9454C2.36625 17.1469 2.11272 17.6792 2.10038 17.9009C2.32199 17.8886 2.85433 17.635 3.05584 17.4334C3.12102 17.3683 3.15695 17.2816 3.15695 17.1894C3.15695 17.0973 3.12111 17.0107 3.05601 16.9455L3.05579 16.9453Z" fill="#AB8EDA"/>
<path d="M11.109 17.1894L12.5732 18.6536C12.8416 18.9218 13.2775 18.9228 13.5467 18.6563L13.5493 18.6536L11.109 16.2133C10.8399 16.4824 10.8399 16.9203 11.109 17.1894Z" fill="#AB8EDA"/>
<path d="M19.1926 8.83005C19.0623 8.69968 18.8889 8.6279 18.7046 8.6279C18.5212 8.6279 18.3488 8.69891 18.2186 8.82794L11.5878 15.7159L14.0258 18.1538L19.1926 12.7346C20.2691 11.6581 20.2691 9.90656 19.1926 8.83005Z" fill="#AB8EDA"/>
<path d="M1.34768 7.42807L2.81184 8.89227C2.94216 9.02264 3.11554 9.09442 3.29988 9.09442C3.48426 9.09442 3.65759 9.02264 3.78791 8.89227L1.34764 6.452L1.34501 6.4545C1.21628 6.58456 1.1454 6.75682 1.1454 6.93999C1.14549 7.12437 1.21731 7.2977 1.34768 7.42807Z" fill="#AB8EDA"/>
<path d="M11.1733 1.7827C11.4403 1.51342 11.4397 1.07707 11.1712 0.808651C10.6497 0.28718 9.95639 0 9.21892 0C8.48145 0 7.78811 0.28718 7.26669 0.808651L7.26078 0.814389L1.84745 5.97556L4.28535 8.41342L11.1733 1.7827ZM7.75524 1.2963C8.14583 0.905629 8.66583 0.690233 9.21892 0.690233C9.25244 0.690233 9.28588 0.69101 9.31914 0.692606L9.28618 1.38202C9.26388 1.38098 9.24144 1.38047 9.21892 1.38047C8.85021 1.38047 8.50354 1.52408 8.24285 1.78481L8.22529 1.8022L5.50983 4.39122L5.03352 3.89162L7.75524 1.2963ZM4.57801 4.32586L5.05432 4.82542L4.42387 5.42653L3.94757 4.92697L4.57801 4.32586Z" fill="#AB8EDA"/>
</svg>
