<svg width="20" height="16" viewBox="0 0 20 16" fill="none" xmlns="http://www.w3.org/2000/svg">
<path d="M10 0C4.48421 0 0 4.48421 0 10C0 11.6211 0.4 13.2211 1.13684 14.6526C1.28421 14.9474 1.57895 15.1158 1.89474 15.1158C2.02105 15.1158 2.16842 15.0947 2.29474 15.0105C2.71579 14.8 2.86316 14.2737 2.65263 13.8526C2.04211 12.6737 1.70526 11.3263 1.70526 10C1.70526 5.43158 5.43158 1.70526 10 1.70526C14.5684 1.70526 18.2947 5.43158 18.2947 10C18.2947 11.3474 17.9579 12.6947 17.3474 13.8526C17.1368 14.2737 17.2842 14.7789 17.7053 15.0105C18.1263 15.2211 18.6316 15.0737 18.8632 14.6526C19.6211 13.2421 20 11.6211 20 10C20 4.48421 15.5158 0 10 0Z" fill="#AB8EDA"/>
<path d="M14.0632 5.01053L8.90526 8.21053C8.27368 8.61053 7.89474 9.30527 7.89474 10.0421C7.91579 11.2211 8.86316 12.1684 10.0421 12.1474C10.7789 12.1474 11.4737 11.7474 11.8526 11.0947L14.9474 5.87369C15.3053 5.30527 14.6526 4.65264 14.0632 5.01053Z" fill="#AB8EDA"/>
<path d="M10 4.61053C10.5 4.61053 10.9053 4.20523 10.9053 3.70527C10.9053 3.2053 10.5 2.8 10 2.8C9.50003 2.8 9.09473 3.2053 9.09473 3.70527C9.09473 4.20523 9.50003 4.61053 10 4.61053Z" fill="#AB8EDA"/>
<path d="M6.2013 6.18137C6.55482 5.82785 6.55482 5.25467 6.2013 4.90115C5.84777 4.54762 5.2746 4.54762 4.92107 4.90115C4.56755 5.25467 4.56755 5.82785 4.92107 6.18137C5.2746 6.5349 5.84777 6.5349 6.2013 6.18137Z" fill="#AB8EDA"/>
<path d="M3.72632 10.8842C4.22628 10.8842 4.63158 10.4789 4.63158 9.97895C4.63158 9.47898 4.22628 9.07368 3.72632 9.07368C3.22635 9.07368 2.82105 9.47898 2.82105 9.97895C2.82105 10.4789 3.22635 10.8842 3.72632 10.8842Z" fill="#AB8EDA"/>
<path d="M16.2947 10.9053C16.7947 10.9053 17.2 10.5 17.2 10C17.2 9.50004 16.7947 9.09474 16.2947 9.09474C15.7948 9.09474 15.3895 9.50004 15.3895 10C15.3895 10.5 15.7948 10.9053 16.2947 10.9053Z" fill="#AB8EDA"/>
</svg>
