<svg width="35" height="39" viewBox="0 0 35 39" fill="none" xmlns="http://www.w3.org/2000/svg">
<path fill-rule="evenodd" clip-rule="evenodd" d="M17.5 32.2868C25.3495 32.2868 31.8905 26.6846 33.3428 19.2604C34.2672 19.2054 35 18.4383 35 17.5V14.7868C35 13.8485 34.2673 13.0814 33.3428 13.0264C31.8905 5.60221 25.3495 0 17.5 0C9.65057 0 3.10958 5.60221 1.65728 13.0264C0.732775 13.0814 0 13.8485 0 14.7868V17.5C0 18.4383 0.732775 19.2055 1.65728 19.2604C3.10958 26.6846 9.65057 32.2868 17.5 32.2868ZM15.1938 7.05427C10.0991 7.05427 5.96899 11.1844 5.96899 16.2791C5.96899 21.3738 10.0991 25.5039 15.1938 25.5039H19.8062C24.9009 25.5039 29.031 21.3738 29.031 16.2791C29.031 11.1844 24.9009 7.05427 19.8062 7.05427H15.1938Z" fill="white"/>
<path d="M17.6356 38.7984C24.3968 38.7984 30.2524 36.4705 33.1008 33.0767C31.9521 31.7081 30.3417 30.3771 28.3527 29.438C18.7209 36.3566 9.85513 31.8134 6.64728 29.1667C4.66762 30.1014 3.33177 31.6931 2.18668 33.0575L2.17053 33.0767C5.01893 36.4705 10.8745 38.7984 17.6356 38.7984Z" fill="white"/>
</svg>
